<?xml version="1.0" standalone="no"?>
<!DOCTYPE svg PUBLIC "-//W3C//DTD SVG 20010904//EN"
 "http://www.w3.org/TR/2001/REC-SVG-20010904/DTD/svg10.dtd">
<svg version="1.0" xmlns="http://www.w3.org/2000/svg"
 width="185.000000pt" height="138.000000pt" viewBox="0 0 185.000000 138.000000"
 preserveAspectRatio="xMidYMid meet">

<g transform="translate(0.000000,138.000000) scale(0.100000,-0.100000)"
fill="#000000" stroke="none">
<path d="M740 751 c-110 -30 -208 -83 -299 -161 l-25 -21 76 -76 76 -76 49 35
c100 73 183 101 298 101 119 0 219 -36 318 -115 l27 -22 76 74 75 75 -46 42
c-59 54 -135 97 -227 129 -99 35 -299 43 -398 15z"/>
<path d="M817 356 c-21 -8 -56 -26 -79 -41 l-41 -27 109 -109 109 -109 107
107 c81 81 105 110 97 120 -6 7 -38 26 -72 43 -49 24 -72 30 -126 30 -36 -1
-83 -7 -104 -14z"/>
</g>
</svg>
